<svg width="190" height="31" viewBox="0 0 190 31" fill="none" xmlns="http://www.w3.org/2000/svg">
<path d="M168.531 30.6191V0.620605H189.447V6.50898H175.781V12.661H188.378V18.564H175.781V24.7307H189.447V30.6191H168.531Z" fill="black"/>
<path d="M135.239 30.6191V0.620605H147.631C149.877 0.620605 151.815 1.02586 153.446 1.83636C155.087 2.63711 156.351 3.78939 157.24 5.29322C158.128 6.78729 158.573 8.55966 158.573 10.6103C158.573 12.6903 158.119 14.4578 157.211 15.9128C156.302 17.358 155.013 18.4615 153.344 19.2232C151.674 19.9751 149.696 20.3511 147.411 20.3511H139.575V14.6385H146.064C147.157 14.6385 148.07 14.4969 148.803 14.2137C149.545 13.9207 150.106 13.4813 150.487 12.8954C150.868 12.2997 151.059 11.538 151.059 10.6103C151.059 9.68265 150.868 8.91609 150.487 8.31065C150.106 7.69544 149.545 7.23648 148.803 6.93376C148.061 6.62128 147.148 6.46504 146.064 6.46504H142.49V30.6191H135.239ZM152.128 16.9088L159.598 30.6191H151.688L144.365 16.9088H152.128Z" fill="black"/>
<path d="M103.8 30.6191V0.620605H124.717V6.50898H111.051V12.661H123.648V18.564H111.051V24.7307H124.717V30.6191H103.8Z" fill="black"/>
<path d="M66.964 30.6191V0.620605H74.2146V12.661H86.0353V0.620605H93.2713V30.6191H86.0353V18.564H74.2146V30.6191H66.964Z" fill="black"/>
<path d="M34.0753 30.6191V0.620605H46.4672C48.7132 0.620605 50.6516 1.06004 52.2824 1.9389C53.9229 2.80799 55.1875 4.02375 56.0761 5.58617C56.9647 7.13883 57.4091 8.94538 57.4091 11.0058C57.4091 13.076 56.955 14.8875 56.0468 16.4401C55.1484 17.983 53.8643 19.1792 52.1945 20.0288C50.5246 20.8784 48.5423 21.3032 46.2475 21.3032H38.6014V15.5906H44.8999C45.9936 15.5906 46.9067 15.4001 47.639 15.0193C48.3812 14.6385 48.9427 14.1063 49.3235 13.4227C49.7044 12.7294 49.8948 11.9237 49.8948 11.0058C49.8948 10.0781 49.7044 9.27739 49.3235 8.6036C48.9427 7.92004 48.3812 7.39273 47.639 7.02165C46.8969 6.65058 45.9839 6.46504 44.8999 6.46504H41.3259V30.6191H34.0753Z" fill="black"/>
<path d="M17.0792 9.61427C16.9816 8.54011 16.547 7.70519 15.7756 7.10952C15.0139 6.50408 13.9251 6.20136 12.5091 6.20136C11.5717 6.20136 10.7905 6.32342 10.1655 6.56755C9.54054 6.81168 9.07181 7.14858 8.75933 7.57824C8.44684 7.99814 8.28572 8.48152 8.27595 9.02837C8.25642 9.47756 8.34431 9.87305 8.53961 10.2148C8.74468 10.5566 9.03763 10.8593 9.41847 11.123C9.80908 11.3769 10.2778 11.6015 10.8247 11.7968C11.3715 11.9921 11.9867 12.163 12.6703 12.3095L15.2483 12.8954C16.7326 13.2176 18.0411 13.6473 19.1738 14.1844C20.3164 14.7214 21.2733 15.3611 22.0448 16.1032C22.826 16.8454 23.4168 17.6998 23.8172 18.6666C24.2175 19.6333 24.4226 20.7172 24.4324 21.9183C24.4226 23.8128 23.9441 25.4387 22.9969 26.796C22.0497 28.1534 20.6874 29.1934 18.9102 29.916C17.1427 30.6386 15.009 30.9999 12.5091 30.9999C9.9995 30.9999 7.81211 30.624 5.94697 29.872C4.08183 29.1201 2.6317 27.9776 1.5966 26.4445C0.561495 24.9114 0.0292954 22.973 0 20.6293H6.94301C7.0016 21.5961 7.26038 22.4017 7.71934 23.0462C8.1783 23.6907 8.80815 24.179 9.60889 24.511C10.4194 24.843 11.3569 25.009 12.4213 25.009C13.3978 25.009 14.2278 24.8772 14.9114 24.6135C15.6047 24.3499 16.1369 23.9837 16.508 23.5149C16.879 23.0462 17.0695 22.5091 17.0792 21.9037C17.0695 21.3373 16.8937 20.8539 16.5519 20.4536C16.2101 20.0434 15.6828 19.6919 14.97 19.3989C14.2669 19.0962 13.3685 18.8179 12.2748 18.564L9.14016 17.8316C6.54264 17.236 4.49684 16.2741 3.00278 14.946C1.50871 13.6082 0.766563 11.8017 0.776328 9.52639C0.766563 7.67101 1.26458 6.04512 2.27039 4.6487C3.2762 3.25229 4.66773 2.16348 6.44499 1.38227C8.22224 0.601055 10.2485 0.210449 12.5238 0.210449C14.8479 0.210449 16.8644 0.605937 18.5733 1.39691C20.2919 2.17812 21.6249 3.2767 22.5721 4.69265C23.5193 6.10859 24.0027 7.74913 24.0222 9.61427H17.0792Z" fill="black"/>
</svg>
