<svg width="23" height="23" viewBox="0 0 23 23" fill="none" xmlns="http://www.w3.org/2000/svg">
<path d="M3.83335 19.1666C3.30627 19.1666 2.85521 18.9791 2.48019 18.604C2.10516 18.229 1.91733 17.7776 1.91669 17.2499V5.74992C1.91669 5.22284 2.10452 4.77178 2.48019 4.39675C2.85585 4.02172 3.30691 3.83389 3.83335 3.83325H19.1667C19.6938 3.83325 20.1451 4.02109 20.5208 4.39675C20.8965 4.77242 21.084 5.22347 21.0834 5.74992V17.2499C21.0834 17.777 20.8958 18.2284 20.5208 18.604C20.1458 18.9797 19.6944 19.1672 19.1667 19.1666H3.83335ZM11.5 12.4583L19.1667 7.66659V5.74992L11.5 10.5416L3.83335 5.74992V7.66659L11.5 12.4583Z" fill="black"/>
</svg>
