<svg xmlns="http://www.w3.org/2000/svg" viewBox="0 0 48 48" stroke="currentColor" >
  <g id="Recycle_Bin" data-name="Recycle Bin">
    <path d="M39,6H30V5a3,3,0,0,0-3-3H20a3,3,0,0,0-3,3V6H9A3,3,0,0,0,6,9v2a3,3,0,0,0,2.025,2.824l.854,27.332a4.977,4.977,0,0,0,5,4.844H34.123a4.977,4.977,0,0,0,5-4.844l.854-27.332A3,3,0,0,0,42,11V9A3,3,0,0,0,39,6ZM19,5a1,1,0,0,1,1-1h7a1,1,0,0,1,1,1V6H19ZM37.122,41.094a2.987,2.987,0,0,1-3,2.906H13.877a2.987,2.987,0,0,1-3-2.906L10.032,14H37.968ZM40,11a1,1,0,0,1-1,1H9a1,1,0,0,1-1-1V9A1,1,0,0,1,9,8H39a1,1,0,0,1,1,1Z"/>
    <path d="M24,19a1,1,0,0,0-1,1V38a1,1,0,0,0,2,0V20A1,1,0,0,0,24,19Z"/>
    <path d="M31.028,19A.972.972,0,0,0,30,19.972l-.5,18A1,1,0,0,0,30.472,39H30.5a1,1,0,0,0,1-.972l.5-18A1,1,0,0,0,31.028,19Z"/>
    <path d="M16.972,19A1,1,0,0,0,16,20.028l.5,18a1,1,0,0,0,1,.972h.028a1,1,0,0,0,.972-1.028l-.5-18A1,1,0,0,0,16.972,19Z"/>
  </g>
</svg>